PathFileType	4	(X/Y/Z)	OpenSim_Sub07_EMGBaseline_Magnet.trc
DataRate	CameraRate	NumFrames	NumMarkers	Units	OrigDataRate	OrigDataStartFrame	OrigNumFrames
100	100	30	8	m	100	1	6828
Frame#	Time	torso_imu_offset_imu	pelvis_imu_offset_imu	tibia_r_imu_offset_imu	femur_r_imu_offset_imu	tibia_l_imu_offset_imu	femur_l_imu_offset_imu	toes_r_imu_offset_imu	toes_l_imu_offset_imu
				X1	Y1	Z1	X2	Y2	Z2	X3	Y3	Z3	X4	Y4	Z4	X5	Y5	Z5	X6	Y6	Z6	X7	Y7	Z7	X8		Y8	Z8	

1	0	0.92993200	0.20629900	-0.04907200	-0.72558600	0.17407200	-0.60693400	-0.52221700	-0.64965800	0.05590800	-0.74072300	-0.42089800	-0.16772500	-0.58960000	0.56176800	0.18872100	-0.64770500	0.26660200	0.49267600	-0.69165000	-0.39697300	-0.40600600	-0.75683600	-0.19824200	-0.42187500
2	0.01000000	0.93408200	0.20629900	-0.05127000	-0.72534200	0.17187500	-0.60913100	-0.51367200	-0.65600600	0.06274400	-0.73437500	-0.42285200	-0.16748000	-0.59204100	0.56835900	0.18847700	-0.64770500	0.26001000	0.49047900	-0.70214800	-0.39502000	-0.40625000	-0.75659200	-0.20263700	-0.42187500
3	0.02000000	0.93408200	0.20629900	-0.04467800	-0.72338900	0.17187500	-0.61157200	-0.52002000	-0.65380900	0.05810500	-0.73632800	-0.42285200	-0.17211900	-0.59643600	0.56835900	0.19067400	-0.64550800	0.26440400	0.49047900	-0.69580100	-0.39477500	-0.41455100	-0.76123000	-0.19824200	-0.41967800
4	0.03000000	0.92993200	0.20410200	-0.04882800	-0.72558600	0.17627000	-0.61401400	-0.52026400	-0.64965800	0.06030300	-0.73852500	-0.42285200	-0.16528300	-0.59643600	0.56616200	0.19311500	-0.65429700	0.26220700	0.49047900	-0.70214800	-0.39697300	-0.40405300	-0.76123000	-0.20263700	-0.41967800
5	0.04000000	0.93847700	0.20629900	-0.04907200	-0.72558600	0.18042000	-0.61181600	-0.52246100	-0.64770500	0.05786100	-0.73413100	-0.42700200	-0.16967800	-0.59204100	0.56835900	0.19287100	-0.64306600	0.25805700	0.49292000	-0.70214800	-0.39917000	-0.40820300	-0.75659200	-0.20703100	-0.41723600
6	0.05000000	0.93408200	0.20825200	-0.04248000	-0.72753900	0.16992200	-0.60913100	-0.52221700	-0.64965800	0.05810500	-0.73852500	-0.42285200	-0.17211900	-0.58960000	0.56396500	0.19091800	-0.65234400	0.26879900	0.49047900	-0.69384800	-0.39697300	-0.40600600	-0.75683600	-0.20043900	-0.42187500
7	0.06000000	0.93432600	0.20190400	-0.04663100	-0.72558600	0.17602500	-0.60693400	-0.51806600	-0.65380900	0.05590800	-0.73877000	-0.41870100	-0.16772500	-0.58960000	0.56835900	0.19067400	-0.64331100	0.26245100	0.49511700	-0.69165000	-0.39477500	-0.41235400	-0.75878900	-0.20922900	-0.42407200
8	0.07000000	0.93408200	0.20629900	-0.04687500	-0.72338900	0.17822300	-0.60717800	-0.51611300	-0.64770500	0.05786100	-0.73852500	-0.42089800	-0.16772500	-0.59179700	0.56396500	0.19091800	-0.64331100	0.26245100	0.48608400	-0.69580100	-0.39892600	-0.41235400	-0.76098600	-0.20483400	-0.41284200
9	0.08000000	0.93872100	0.20214800	-0.05322300	-0.72534200	0.16992200	-0.60913100	-0.52002000	-0.65185500	0.06250000	-0.74072300	-0.42285200	-0.16308600	-0.59399400	0.56176800	0.19091800	-0.64770500	0.26440400	0.49047900	-0.69995100	-0.39697300	-0.40600600	-0.75903300	-0.20043900	-0.42187500
10	0.09000000	0.93627900	0.20410200	-0.04663100	-0.72338900	0.17627000	-0.61157200	-0.52221700	-0.65185500	0.05810500	-0.73877000	-0.41870100	-0.16772500	-0.59179700	0.56396500	0.19311500	-0.64990200	0.26440400	0.48608400	-0.69799800	-0.39697300	-0.41455100	-0.75903300	-0.20043900	-0.41967800
11	0.10000000	0.93408200	0.20629900	-0.04467800	-0.72558600	0.17602500	-0.60937500	-0.51806600	-0.65185500	0.05810500	-0.73852500	-0.42285200	-0.16772500	-0.59204100	0.56835900	0.18627900	-0.64770500	0.26440400	0.49267600	-0.69995100	-0.39917000	-0.40405300	-0.75463900	-0.19604500	-0.42846700
12	0.11000000	0.93627900	0.20410200	-0.04443400	-0.72338900	0.17407200	-0.60937500	-0.52026400	-0.64770500	0.05566400	-0.73657200	-0.42065400	-0.16772500	-0.59399400	0.56396500	0.19311500	-0.65210000	0.26220700	0.49267600	-0.69799800	-0.39697300	-0.41015600	-0.75659200	-0.20483400	-0.42187500
13	0.12000000	0.93627900	0.20849600	-0.04467800	-0.72558600	0.17602500	-0.60937500	-0.52026400	-0.64965800	0.06030300	-0.73632800	-0.42285200	-0.16992200	-0.59179700	0.56396500	0.18627900	-0.65210000	0.26001000	0.48388700	-0.70214800	-0.39697300	-0.40820300	-0.75659200	-0.20703100	-0.42187500
14	0.13000000	0.93432600	0.20190400	-0.04663100	-0.72338900	0.17602500	-0.60473600	-0.52221700	-0.65185500	0.05590800	-0.73852500	-0.42285200	-0.16992200	-0.59179700	0.56616200	0.19067400	-0.64770500	0.26440400	0.49047900	-0.69384800	-0.39477500	-0.41040000	-0.75903300	-0.20043900	-0.41967800
15	0.14000000	0.93188500	0.21264600	-0.04272500	-0.72558600	0.17407200	-0.61401400	-0.51806600	-0.65380900	0.05590800	-0.73852500	-0.42065400	-0.16992200	-0.59399400	0.56616200	0.19531200	-0.64550800	0.26440400	0.48828100	-0.69580100	-0.39697300	-0.40820300	-0.75659200	-0.20263700	-0.41967800
16	0.15000000	0.93627900	0.20410200	-0.04443400	-0.72534200	0.16772500	-0.61596700	-0.51782200	-0.65600600	0.05371100	-0.73632800	-0.42480500	-0.17211900	-0.58960000	0.56176800	0.19531200	-0.64990200	0.26220700	0.48828100	-0.70019500	-0.39282200	-0.41235400	-0.75878900	-0.20703100	-0.42187500
17	0.16000000	0.93432600	0.20410200	-0.04223600	-0.71923800	0.17627000	-0.60693400	-0.52221700	-0.65380900	0.05810500	-0.73657200	-0.41870100	-0.16772500	-0.59179700	0.56616200	0.19311500	-0.64550800	0.26220700	0.48828100	-0.70214800	-0.39917000	-0.40820300	-0.76123000	-0.20263700	-0.42407200
18	0.17000000	0.93847700	0.20410200	-0.04223600	-0.72338900	0.17602500	-0.60693400	-0.51806600	-0.64770500	0.05566400	-0.74047900	-0.42700200	-0.16064500	-0.59204100	0.56835900	0.18847700	-0.65673800	0.26855500	0.48828100	-0.70214800	-0.39697300	-0.40405300	-0.76098600	-0.20703100	-0.42407200
19	0.18000000	0.93432600	0.20410200	-0.04443400	-0.72119100	0.17627000	-0.60693400	-0.52221700	-0.64965800	0.05810500	-0.73657200	-0.41870100	-0.17236300	-0.59204100	0.56835900	0.19506800	-0.64770500	0.26220700	0.48828100	-0.69799800	-0.39502000	-0.41455100	-0.76586900	-0.19824200	-0.41967800
20	0.19000000	0.93652300	0.20214800	-0.04443400	-0.72338900	0.17407200	-0.60449200	-0.52002000	-0.65185500	0.05151400	-0.73657200	-0.41870100	-0.16308600	-0.59204100	0.56835900	0.18847700	-0.64770500	0.26220700	0.49047900	-0.69799800	-0.39697300	-0.40600600	-0.76123000	-0.20043900	-0.42407200
21	0.20000000	0.93212900	0.20410200	-0.04223600	-0.71460000	0.17211900	-0.61377000	-0.51782200	-0.65795900	0.06274400	-0.73657200	-0.42285200	-0.16308600	-0.58960000	0.56835900	0.19067400	-0.64331100	0.26245100	0.49267600	-0.69580100	-0.39697300	-0.40820300	-0.75903300	-0.19824200	-0.41967800
22	0.21000000	0.93847700	0.20410200	-0.04882800	-0.72338900	0.17602500	-0.60473600	-0.51586900	-0.65600600	0.06054700	-0.73657200	-0.41674800	-0.16552700	-0.59423800	0.56616200	0.18627900	-0.65210000	0.26001000	0.49047900	-0.69384800	-0.39477500	-0.41235400	-0.76123000	-0.20043900	-0.41967800
23	0.22000000	0.94067400	0.20214800	-0.04443400	-0.71923800	0.17627000	-0.60473600	-0.52221700	-0.64965800	0.06030300	-0.73852500	-0.42065400	-0.16992200	-0.59399400	0.56176800	0.19091800	-0.64990200	0.26440400	0.49267600	-0.69360400	-0.39892600	-0.40600600	-0.76098600	-0.20483400	-0.42407200
24	0.23000000	0.93212900	0.20190400	-0.04003900	-0.72753900	0.17407200	-0.60937500	-0.51806600	-0.65380900	0.05590800	-0.74267600	-0.42700200	-0.16284200	-0.59619100	0.56176800	0.18432600	-0.64331100	0.26440400	0.49047900	-0.69384800	-0.39477500	-0.40820300	-0.75683600	-0.20043900	-0.42407200
25	0.24000000	0.93432600	0.20410200	-0.04223600	-0.71899400	0.17187500	-0.60449200	-0.52002000	-0.65185500	0.05810500	-0.73437500	-0.42480500	-0.16748000	-0.58960000	0.56176800	0.19311500	-0.64990200	0.26220700	0.49511700	-0.69360400	-0.40112300	-0.40600600	-0.75683600	-0.20043900	-0.42187500
26	0.25000000	0.93847700	0.20214800	-0.04443400	-0.72338900	0.17407200	-0.60937500	-0.52441400	-0.64965800	0.05810500	-0.74047900	-0.42504900	-0.16528300	-0.59399400	0.56396500	0.18872100	-0.64770500	0.26440400	0.48608400	-0.69799800	-0.39697300	-0.40185500	-0.75903300	-0.20043900	-0.42187500
27	0.26000000	0.93432600	0.20410200	-0.04003900	-0.72338900	0.17187500	-0.60913100	-0.52636700	-0.65600600	0.06274400	-0.73632800	-0.42480500	-0.16992200	-0.58960000	0.56396500	0.18627900	-0.65014600	0.26879900	0.49487300	-0.70214800	-0.39502000	-0.41455100	-0.75903300	-0.20263700	-0.41967800
28	0.27000000	0.93847700	0.20410200	-0.04003900	-0.72119100	0.17187500	-0.60913100	-0.52002000	-0.65600600	0.05835000	-0.73852500	-0.42089800	-0.16772500	-0.59179700	0.56176800	0.19091800	-0.64965800	0.25781200	0.49047900	-0.69580100	-0.39502000	-0.40820300	-0.76123000	-0.20263700	-0.42187500
29	0.28000000	0.93432600	0.20190400	-0.04003900	-0.72119100	0.17407200	-0.61157200	-0.52026400	-0.64965800	0.05590800	-0.73632800	-0.42285200	-0.16772500	-0.59643600	0.56591800	0.19531200	-0.64794900	0.26879900	0.48364300	-0.70019500	-0.39282200	-0.40625000	-0.75659200	-0.20263700	-0.42187500
30	0.29000000	0.93627900	0.20629900	-0.04248000	-0.71899400	0.16992200	-0.60913100	-0.52026400	-0.64770500	0.05786100	-0.73852500	-0.42480500	-0.17211900	-0.59399400	0.56396500	0.18872100	-0.64770500	0.26001000	0.49267600	-0.69384800	-0.39697300	-0.41235400	-0.75659200	-0.20483400	-0.42407200
